<svg width="188" height="120" viewBox="0 0 188 120" fill="none" xmlns="http://www.w3.org/2000/svg">
<g clip-path="url(#clip0_117_770)">
<line y1="-3" x2="16" y2="-3" transform="matrix(-1 0 0 1 106.001 78)" stroke="#080345" stroke-width="6"/>
<line y1="-3" x2="16" y2="-3" transform="matrix(-1 0 0 1 132.001 78)" stroke="#080345" stroke-width="6"/>
<line y1="-3" x2="31" y2="-3" transform="matrix(-0.309017 -0.951057 -0.951057 0.309017 128.044 119.576)" stroke="#080345" stroke-width="6"/>
<line y1="-3" x2="43.75" y2="-3" transform="matrix(-0.309017 0.951057 0.951057 0.309017 147.306 77.9863)" stroke="#080345" stroke-width="6"/>
<line y1="-3" x2="43.75" y2="-3" transform="matrix(-0.309017 0.951057 0.951057 0.309017 128.001 77.9868)" stroke="#080345" stroke-width="6"/>
<line y1="-3" x2="44.23" y2="-3" transform="matrix(-0.309017 -0.951057 -0.951057 0.309017 109.001 119.681)" stroke="#080345" stroke-width="6"/>
<line y1="-3" x2="16" y2="-3" transform="matrix(-1 0 0 1 152.001 78)" stroke="#080345" stroke-width="6"/>
<line y1="-3" x2="5.75" y2="-3" transform="matrix(-1 0 0 1 133.801 119.617)" stroke="#080345" stroke-width="6"/>
<line y1="-3" x2="5.5" y2="-3" transform="matrix(-1 0 0 1 114.501 119.617)" stroke="#080345" stroke-width="6"/>
<line y1="-3" x2="16" y2="-3" transform="matrix(-1 0 0 1 40.001 78)" stroke="#080345" stroke-width="6"/>
<line y1="-3" x2="16" y2="-3" transform="matrix(-1 0 0 1 66.001 78)" stroke="#080345" stroke-width="6"/>
<line y1="-3" x2="31" y2="-3" transform="matrix(-0.309017 -0.951057 -0.951057 0.309017 62.0444 119.576)" stroke="#080345" stroke-width="6"/>
<line y1="-3" x2="43.75" y2="-3" transform="matrix(-0.309017 0.951057 0.951057 0.309017 81.3059 77.9863)" stroke="#080345" stroke-width="6"/>
<line y1="-3" x2="43.75" y2="-3" transform="matrix(-0.309017 0.951057 0.951057 0.309017 62.001 77.9868)" stroke="#080345" stroke-width="6"/>
<line y1="-3" x2="44.23" y2="-3" transform="matrix(-0.309017 -0.951057 -0.951057 0.309017 43.001 119.681)" stroke="#080345" stroke-width="6"/>
<line y1="-3" x2="16" y2="-3" transform="matrix(-1 0 0 1 86.001 78)" stroke="#080345" stroke-width="6"/>
<line y1="-3" x2="5.75" y2="-3" transform="matrix(-1 0 0 1 67.801 119.617)" stroke="#080345" stroke-width="6"/>
<line y1="-3" x2="5.5" y2="-3" transform="matrix(-1 0 0 1 48.501 119.617)" stroke="#080345" stroke-width="6"/>
<path d="M13.0017 0C5.82201 0 0.00172248 5.82031 0.00170898 13L0.000732422 106.633C0.000841168 113.812 5.82129 119.633 13.0007 119.633H31.5271L29.5779 113.633H13.0007C9.135 113.633 6.00084 110.499 6.00073 106.633L6.00171 13C6.00172 9.13401 9.13572 6 13.0017 6H154.885C159.653 6.0003 163.026 10.6648 161.532 15.1934L159.286 22H165.604L167.23 17.0742C170.006 8.66366 163.741 0.000301195 154.885 0H13.0017ZM145.76 62.9863H152.078L161.644 34H155.326L145.76 62.9863Z" fill="#080345"/>
<path d="M140.001 56L128.107 50.6477C124.962 49.2326 124.962 44.7674 128.107 43.3523L140.001 38" stroke="#080345" stroke-width="6" stroke-linecap="round"/>
<path d="M168.001 56L179.895 50.6477C183.039 49.2326 183.039 44.7674 179.895 43.3523L168.001 38" stroke="#080345" stroke-width="6" stroke-linecap="round"/>
<path d="M22.0007 119.63V113.63H32.1027C32.9698 113.63 33.7381 114.189 34.0053 115.014L35.077 118.322C35.2862 118.968 34.8046 119.63 34.1256 119.63H22.0007Z" fill="#080345"/>
<path d="M149.322 52.1596L155.029 54.0137L151.907 63.6212C151.639 64.4459 150.87 65.0039 150.003 65.0031L146.526 65.0001C145.847 64.9995 145.366 64.3368 145.576 63.691L149.322 52.1596Z" fill="#080345"/>
<path d="M161.35 15.7336L167.057 17.5854L165.265 23.1071C164.973 24.0082 164.089 24.5806 163.147 24.4781L159.893 24.1241C159.263 24.0554 158.854 23.4246 159.05 22.8213L161.35 15.7336Z" fill="#080345"/>
<path d="M158.118 44.8426L152.411 42.9907L155.529 33.382C155.796 32.5572 156.565 31.9988 157.432 31.9993L160.909 32.001C161.588 32.0013 162.07 32.6638 161.86 33.3096L158.118 44.8426Z" fill="#080345"/>
</g>
<defs>
<clipPath id="clip0_117_770">
<rect width="188.001" height="119.681" fill="white"/>
</clipPath>
</defs>
</svg>
