<svg width="24" height="24" viewBox="0 0 24 24" fill="none" xmlns="http://www.w3.org/2000/svg">
<path d="M14 11.97C14 10.9092 13.5786 9.89175 12.8284 9.1416C12.0783 8.39146 11.0609 7.97003 10 7.97003C8.93913 7.97003 7.92172 8.39146 7.17157 9.1416C6.42143 9.89175 6 10.9092 6 11.97C6 14.0918 6.84285 16.1266 8.34315 17.6269C9.84344 19.1272 11.8783 19.97 14 19.97C16.1217 19.97 18.1566 19.1272 19.6569 17.6269C21.1571 16.1266 22 14.0918 22 11.97C22 8.42003 20.45 5.22003 18 3.03003" stroke="#1B1B1F" stroke-width="2" stroke-linecap="round" stroke-linejoin="round"/>
<path d="M10 11.97C10 13.0308 10.4214 14.0483 11.1716 14.7984C11.9217 15.5485 12.9391 15.97 14 15.97C15.0609 15.97 16.0783 15.5485 16.8284 14.7984C17.5786 14.0483 18 13.0308 18 11.97C18 9.84824 17.1571 7.81341 15.6569 6.31312C14.1566 4.81283 12.1217 3.96997 10 3.96997C7.87827 3.96997 5.84344 4.81283 4.34315 6.31312C2.84285 7.81341 2 9.84824 2 11.97C2 15.55 3.57 18.77 6.06 20.97" stroke="#F56565" stroke-width="2" stroke-linecap="round" stroke-linejoin="round"/>
</svg>
