<svg width="308" height="308" viewBox="0 0 308 308" fill="none" xmlns="http://www.w3.org/2000/svg">
<line y1="-3" x2="16" y2="-3" transform="matrix(-1 0 0 1 166.001 172.16)" stroke="#080345" stroke-width="6"/>
<line y1="-3" x2="16" y2="-3" transform="matrix(-1 0 0 1 192.001 172.16)" stroke="#080345" stroke-width="6"/>
<line y1="-3" x2="31" y2="-3" transform="matrix(-0.309017 -0.951057 -0.951057 0.309017 188.044 213.735)" stroke="#080345" stroke-width="6"/>
<line y1="-3" x2="43.75" y2="-3" transform="matrix(-0.309017 0.951057 0.951057 0.309017 207.306 172.146)" stroke="#080345" stroke-width="6"/>
<line y1="-3" x2="43.75" y2="-3" transform="matrix(-0.309017 0.951057 0.951057 0.309017 188.001 172.146)" stroke="#080345" stroke-width="6"/>
<line y1="-3" x2="44.23" y2="-3" transform="matrix(-0.309017 -0.951057 -0.951057 0.309017 169.001 213.841)" stroke="#080345" stroke-width="6"/>
<line y1="-3" x2="16" y2="-3" transform="matrix(-1 0 0 1 212.001 172.16)" stroke="#080345" stroke-width="6"/>
<line y1="-3" x2="5.75" y2="-3" transform="matrix(-1 0 0 1 193.801 213.777)" stroke="#080345" stroke-width="6"/>
<line y1="-3" x2="5.5" y2="-3" transform="matrix(-1 0 0 1 174.501 213.777)" stroke="#080345" stroke-width="6"/>
<line y1="-3" x2="16" y2="-3" transform="matrix(-1 0 0 1 100.001 172.16)" stroke="#080345" stroke-width="6"/>
<line y1="-3" x2="16" y2="-3" transform="matrix(-1 0 0 1 126.001 172.16)" stroke="#080345" stroke-width="6"/>
<line y1="-3" x2="31" y2="-3" transform="matrix(-0.309017 -0.951057 -0.951057 0.309017 122.044 213.735)" stroke="#080345" stroke-width="6"/>
<line y1="-3" x2="43.75" y2="-3" transform="matrix(-0.309017 0.951057 0.951057 0.309017 141.306 172.146)" stroke="#080345" stroke-width="6"/>
<line y1="-3" x2="43.75" y2="-3" transform="matrix(-0.309017 0.951057 0.951057 0.309017 122.001 172.146)" stroke="#080345" stroke-width="6"/>
<line y1="-3" x2="44.23" y2="-3" transform="matrix(-0.309017 -0.951057 -0.951057 0.309017 103.001 213.841)" stroke="#080345" stroke-width="6"/>
<line y1="-3" x2="16" y2="-3" transform="matrix(-1 0 0 1 146.001 172.16)" stroke="#080345" stroke-width="6"/>
<line y1="-3" x2="5.75" y2="-3" transform="matrix(-1 0 0 1 127.801 213.777)" stroke="#080345" stroke-width="6"/>
<line y1="-3" x2="5.5" y2="-3" transform="matrix(-1 0 0 1 108.501 213.777)" stroke="#080345" stroke-width="6"/>
<path d="M73.001 94.1597C65.8214 94.1598 60.001 99.98 60.001 107.16L60 200.792C60.0001 207.972 65.8206 213.792 73 213.792H91.5264L89.5771 207.792H73C69.1343 207.792 66.0001 204.658 66 200.792L66.001 107.16C66.001 103.294 69.1351 100.16 73.001 100.16H214.884C219.653 100.16 223.026 104.824 221.531 109.353L219.285 116.16H225.604L227.229 111.234C230.005 102.823 223.741 94.1597 214.884 94.1597H73.001ZM205.759 157.146H212.077L221.644 128.16H215.325L205.759 157.146Z" fill="#080345"/>
<path d="M200.001 150.16L188.107 144.807C184.962 143.392 184.962 138.927 188.107 137.512L200.001 132.16" stroke="#080345" stroke-width="6" stroke-linecap="round"/>
<path d="M228.001 150.16L239.895 144.807C243.039 143.392 243.039 138.927 239.895 137.512L228.001 132.16" stroke="#080345" stroke-width="6" stroke-linecap="round"/>
<path d="M82.0007 213.79V207.79H92.1027C92.9698 207.79 93.7381 208.348 94.0053 209.173L95.077 212.481C95.2862 213.127 94.8046 213.79 94.1256 213.79H82.0007Z" fill="#080345"/>
<path d="M209.322 146.319L215.029 148.173L211.907 157.781C211.639 158.606 210.87 159.164 210.003 159.163L206.526 159.16C205.847 159.159 205.366 158.496 205.576 157.851L209.322 146.319Z" fill="#080345"/>
<path d="M221.35 109.893L227.057 111.745L225.265 117.267C224.973 118.168 224.089 118.74 223.147 118.638L219.893 118.284C219.263 118.215 218.854 117.584 219.05 116.981L221.35 109.893Z" fill="#080345"/>
<path d="M218.118 139.002L212.411 137.15L215.529 127.542C215.796 126.717 216.565 126.158 217.432 126.159L220.909 126.161C221.588 126.161 222.07 126.823 221.86 127.469L218.118 139.002Z" fill="#080345"/>
</svg>
